PathFileType	4	(X/Y/Z)	Kaydara																																																																																																																									
DataRate	CameraRate	NumFrames	NumMarkers	Units	OrigDataRate	OrigDataStartFrame	OrigNumFrames																																																																																																																					
30	30	6	41	mm	30	130	345																																																																																																																					
Frame#	Time	NABA_LFHD			NABA_RFHD			NABA_LBHD			NABA_RBHD			NABA_LFTShould			NABA_RFTShould			NABA_LRRShould			NABA_RRRShould			NABA_T10			NABA_STRN			NABA_TRUN			NABA_LSHO			NABA_LUPA			NABA_LELB			NABA_LFRM			NABA_LWRA			NABA_LWRB			NABA_LFIN			NABA_RSHO			NABA_RUPA			NABA_RELB			NABA_RFRM			NABA_RWRA			NABA_RWRB			NABA_RFIN			NABA_LFWT			NABA_RFWT			NABA_LBWT			NABA_RBWT			NABA_LTHI			NABA_LKNE			NABA_LSHN			NABA_LANK			NABA_LHEE			NABA_LTOE			NABA_RTHI			NABA_RKNE			NABA_RSHN			NABA_RANK			NABA_RHEE			NABA_RTOE		
		X1	Y1	Z1	X2	Y2	Z2	X3	Y3	Z3	X4	Y4	Z4	X5	Y5	Z5	X6	Y6	Z6	X7	Y7	Z7	X8	Y8	Z8	X9	Y9	Z9	X10	Y10	Z10	X11	Y11	Z11	X12	Y12	Z12	X13	Y13	Z13	X14	Y14	Z14	X15	Y15	Z15	X16	Y16	Z16	X17	Y17	Z17	X18	Y18	Z18	X19	Y19	Z19	X20	Y20	Z20	X21	Y21	Z21	X22	Y22	Z22	X23	Y23	Z23	X24	Y24	Z24	X25	Y25	Z25	X26	Y26	Z26	X27	Y27	Z27	X28	Y28	Z28	X29	Y29	Z29	X30	Y30	Z30	X31	Y31	Z31	X32	Y32	Z32	X33	Y33	Z33	X34	Y34	Z34	X35	Y35	Z35	X36	Y36	Z36	X37	Y37	Z37	X38	Y38	Z38	X39	Y39	Z39	X40	Y40	Z40	X41	Y41	Z41
																																																																																																																												
130	4.31	275.19726	1476.58585	-919.76715	105.85834	1441.62292	-924.05083	289.967	1553.26431	-1019.23615	73.70547	1504.37775	-998.02032	269.39396	1312.87247	-1086.16592	136.82544	1308.22754	-1092.16881	273.38709	1380.66925	-1195.85793	124.33301	1375.37613	-1193.50365	211.60835	1222.67799	-1284.08188	203.20164	1254.70093	-1046.68495	202.46346	1154.54178	-1005.61272	371.76559	1340.99945	-1131.89781	428.28667	1103.55667	-1173.93333	438.41896	1018.70743	-1151.27304	430.18669	944.91875	-1170.45364	372.69142	803.75702	-1083.76724	444.49875	801.38718	-1088.256	424.26991	746.75186	-1042.06131	43.32196	1336.01547	-1134.54788	-4.14301	1137.75734	-1219.61197	-34.40426	1013.19992	-1185.65147	-36.50988	917.20406	-1176.21964	33.33319	797.99988	-1092.98683	-39.08891	783.76801	-1094.54361	-23.60598	748.98636	-1062.09122	331.43349	941.51108	-1085.24071	66.26943	941.53854	-1093.1118	286.28347	1002.20016	-1257.01523	118.07802	1012.57721	-1267.74513	327.60078	638.29628	-1212.57004	315.10513	490.29949	-1150.59631	248.43021	299.50891	-1121.47903	270.39444	144.75479	-1183.87634	214.08743	98.66201	-1242.74986	230.8353	66.89929	-1056.09055	62.40162	643.54912	-1171.6571	67.3026	508.87127	-1013.41354	75.06894	353.17558	-1111.76857	64.31563	244.44798	-1283.38943	119.01331	247.72409	-1362.46262	82.9217	91.84011	-1233.35068
131	4.343	276.66094	1476.99142	-905.45486	107.31823	1441.80725	-910.29495	291.56816	1553.63754	-1005.02533	75.19935	1504.5079	-984.41719	271.39725	1313.08914	-1071.84982	139.03675	1308.30856	-1078.01636	275.68966	1380.72906	-1181.50459	126.59785	1375.33936	-1179.69612	214.16216	1222.84996	-1269.97406	205.22213	1254.67575	-1032.47246	204.60155	1154.50516	-991.47331	373.78483	1340.98389	-1117.25365	429.89578	1103.01506	-1157.88948	439.52118	1018.28445	-1134.81956	430.82497	944.22203	-1153.16811	372.11353	804.85741	-1064.44649	443.86482	801.68915	-1068.9682	423.22819	747.91267	-1021.92276	45.7166	1335.84808	-1120.61241	-1.91904	1137.31247	-1205.4071	-33.33337	1013.23647	-1170.68558	-35.46091	917.22679	-1159.96376	33.41511	800.03517	-1072.58987	-38.67825	785.05287	-1076.31241	-23.23291	750.72807	-1043.55759	333.66325	941.28815	-1071.23741	68.60415	942.40532	-1077.81326	288.15956	1002.01271	-1243.43147	119.82713	1012.68929	-1253.63831	328.22811	638.74603	-1202.89215	316.04467	489.77245	-1143.03268	248.78502	298.44223	-1117.36588	270.25108	144.91064	-1182.33269	213.70613	99.81298	-1241.76674	230.93369	66.83386	-1055.99586	63.53969	644.22401	-1148.99612	72.54658	515.29232	-986.3903	79.08274	353.032	-1073.8781	67.48584	229.90084	-1235.38879	122.77589	223.52139	-1314.32693	83.85793	88.41445	-1166.45767
132	4.377	277.89133	1477.62817	-891.57112	108.48441	1442.18826	-897.12601	293.01479	1553.87955	-991.34911	76.58531	1504.56924	-971.17973	273.50454	1313.03497	-1057.87003	141.06635	1308.06274	-1063.93257	277.6992	1380.64224	-1167.56912	128.57154	1375.1503	-1165.71297	216.13621	1222.75826	-1256.175	207.3686	1254.5401	-1018.39569	206.92839	1154.27124	-977.47574	375.71911	1340.85815	-1103.23555	431.6021	1102.41844	-1142.43912	440.48706	1017.67632	-1119.0345	431.36684	943.38043	-1136.69876	370.70965	805.52216	-1047.05605	442.50755	801.64795	-1050.94635	420.82748	748.58665	-1003.43315	47.72509	1335.66528	-1106.62071	-0.53044	1137.04155	-1191.2925	-32.35284	1012.95433	-1155.60135	-34.4135	916.81236	-1143.85475	33.89974	800.36407	-1055.8812	-38.35387	785.53558	-1059.42513	-23.094	751.45004	-1026.13991	336.48293	940.67375	-1058.75191	70.84392	943.08098	-1062.66594	289.55069	1001.80672	-1230.29762	121.07724	1012.94449	-1239.87831	328.77728	639.03191	-1193.67691	316.69741	489.23683	-1135.86739	248.63203	297.34846	-1112.66411	270.15463	145.08009	-1180.66841	213.63981	100.74705	-1240.71854	231.04168	66.80672	-1055.95551	64.31201	644.96513	-1129.5208	76.52332	520.78812	-963.79189	82.04851	352.19078	-1037.39433	70.13447	212.31155	-1184.3177	125.31687	196.21841	-1262.79762	85.62747	83.62599	-1097.94342
133	4.41	279.17522	1477.83035	-878.03055	109.80615	1442.27203	-883.75748	294.3804	1553.70941	-978.00064	77.91109	1504.32541	-958.21983	275.48519	1312.87888	-1044.23645	142.98813	1307.77039	-1050.08713	279.35104	1380.23849	-1153.9801	130.1546	1374.70734	-1151.85654	217.65451	1222.44202	-1242.69859	209.19874	1253.58421	-1005.30258	209.13811	1153.69766	-963.81927	377.60742	1340.4895	-1089.78722	433.06843	1101.57944	-1127.78664	441.14021	1016.75972	-1104.04663	431.63044	942.25632	-1121.32057	368.90675	805.61874	-1031.30737	440.62321	801.14555	-1034.33212	417.76012	748.64014	-986.68854	49.52684	1335.14679	-1092.43935	0.50518	1136.1554	-1175.7428	-31.32703	1012.40578	-1139.84329	-33.66568	916.37192	-1128.0275	34.62158	799.76524	-1040.30396	-37.70637	785.2076	-1043.30521	-22.51798	751.10634	-1010.18196	338.2732	939.48746	-1046.23596	73.41611	942.52457	-1051.43349	290.44638	1001.48018	-1217.48924	122.30791	1012.98248	-1226.51794	329.3697	639.00856	-1184.60426	317.06976	488.50811	-1128.79257	248.45001	296.07422	-1108.94371	269.88886	145.10646	-1179.11819	213.23584	101.99022	-1240.54214	230.99655	66.71316	-1055.80566	65.09171	645.53696	-1112.35573	79.52021	524.99115	-944.1954	84.56337	350.99957	-1002.26845	72.19369	194.35751	-1131.24977	126.91145	168.5914	-1207.60208	89.28049	79.66	-1028.80638
134	4.443	280.37905	1477.40646	-864.59915	111.16294	1441.93909	-870.56053	295.76193	1553.17535	-964.6553	79.33933	1503.91022	-945.02174	277.108	1312.12082	-1030.94658	144.62145	1306.90979	-1036.51657	280.70679	1379.56131	-1140.73639	131.4386	1374.09424	-1138.19305	218.77068	1221.98944	-1229.54689	210.75382	1252.65373	-992.02576	210.94151	1152.88895	-950.4274	379.05624	1339.58878	-1076.64276	434.05979	1100.40977	-1114.0094	441.54354	1015.47241	-1090.00938	431.54549	940.90836	-1107.02057	366.80202	805.06493	-1017.31651	438.61279	800.14091	-1019.1877	414.60052	748.02467	-971.58577	51.08502	1334.37149	-1078.41621	1.30073	1134.84383	-1160.33241	-30.13048	1011.44287	-1123.65738	-32.91953	915.55832	-1112.29515	35.35986	798.14606	-1025.77621	-37.0204	784.0995	-1028.11989	-21.66383	749.58733	-995.38017	339.38328	938.34633	-1033.51303	74.5501	941.51573	-1039.51241	291.27493	1001.05064	-1204.77287	123.35433	1012.68959	-1213.66058	329.70222	639.31408	-1175.6881	317.41207	488.032	-1122.21214	248.80428	295.4472	-1105.23384	269.71157	145.39527	-1177.94189	212.64219	103.12344	-1239.73579	231.19064	66.58206	-1055.76942	65.75136	645.50201	-1097.20657	81.62385	527.55432	-927.93037	86.41212	349.83543	-969.04053	74.00706	178.6384	-1077.76352	127.54695	143.1776	-1150.09338	92.83648	78.11665	-961.73294
135	4.477	281.67816	1476.47034	-851.30135	112.29584	1441.09573	-857.10129	297.08303	1552.31339	-951.30051	80.56413	1503.20663	-931.57677	278.03009	1311.13922	-1017.83127	145.87598	1306.25061	-1023.20694	281.72407	1378.9299	-1127.58255	132.3793	1373.60153	-1124.82155	219.49324	1221.55373	-1216.53526	212.25992	1252.08405	-978.43338	212.17442	1152.03293	-937.22061	380.03277	1338.64227	-1063.7336	434.58622	1099.02222	-1100.96237	441.48174	1013.98933	-1076.79871	431.11809	939.49326	-1093.81477	364.82269	804.4931	-1003.63449	436.72699	798.78128	-1005.76035	411.9561	746.84227	-958.21602	52.19474	1333.55743	-1064.79568	1.8257	1133.30505	-1145.25429	-28.61668	1010.18044	-1107.55409	-31.82577	914.66599	-1097.10251	36.34355	796.1097	-1012.14424	-36.16597	782.40349	-1014.11629	-20.59515	747.35237	-981.99623	339.97753	937.62383	-1020.69489	75.25377	940.93048	-1026.68083	292.11605	1000.86426	-1191.8116	124.1518	1012.33437	-1200.87753	329.73614	640.02434	-1167.01714	317.88465	488.01067	-1116.02913	249.82746	294.99109	-1102.16637	269.8044	146.15502	-1177.05009	212.17682	104.49553	-1238.7059	231.76025	66.45414	-1055.95284	66.54097	645.05928	-1083.96042	82.54737	528.63277	-914.3187	87.17531	349.52908	-939.25751	75.60558	166.18237	-1025.1963	129.10155	122.15648	-1092.50786	95.73294	79.25167	-898.4259
